<?xml version="1.0" encoding="UTF-8"?>
<svg id="Layer_1" data-name="Layer 1" xmlns="http://www.w3.org/2000/svg" xmlns:xlink="http://www.w3.org/1999/xlink" viewBox="0 0 1233.31 442.57">
  <defs>
    <style>
      .cls-1 {
        filter: url(#drop-shadow-2);
      }

      .cls-1, .cls-2, .cls-3 {
        fill: #0e03a0;
      }

      .cls-2 {
        font-family: Poppins-Bold, Poppins;
        font-size: 283.98px;
        font-weight: 700;
      }

      .cls-4 {
        fill: #fff;
      }
    </style>
    <filter id="drop-shadow-2" x="26.77" y="47.68" width="376.56" height="376.56" filterUnits="userSpaceOnUse">
      <feOffset dx="3" dy="4"/>
      <feGaussianBlur result="blur" stdDeviation="5"/>
      <feFlood flood-color="#000" flood-opacity=".45"/>
      <feComposite in2="blur" operator="in"/>
      <feComposite in="SourceGraphic"/>
    </filter>
  </defs>
  <g>
    <text class="cls-2" transform="translate(420.54 335.64)"><tspan x="0" y="0">FitFl</tspan></text>
    <path class="cls-3" d="M1099.43,342.08c-5.62,0-11.39-.67-17.26-2.1-19.84-4.85-37.28-17.84-49.11-36.6-11.51-18.25-16.69-40.53-14.58-62.73l38.82,3.69c-2.58,27.08,12.41,52.44,34.12,57.75,20.54,5.02,40.6-11.13,48.11-29.64.65-1.6,1.2-3.2,1.67-4.79-9.55,2.59-19.34,3.69-28.77,3.09-18.13-1.15-33.23-8.36-43.66-20.85-16.75-20.07-22.87-56.15-5.28-77.88,7.65-9.45,18.81-15.02,32.28-16.11,12.2-.98,22.6,1.98,27.72,3.83,17.34,6.28,33.43,21.08,44.44,40.52,1.27-2.51,2.42-5.17,3.45-7.98l36.62,13.4c-5.75,15.7-14.3,28.89-25.42,39.22-.2.18-.4.37-.6.55,1.09,14.39-1,28.55-6.32,41.65-11.68,28.79-41.08,54.96-76.25,54.96ZM1100.57,194.75c-3.17,0-5.78.61-6.76,1.83-3.73,4.61-1.78,20.33,4.91,28.35,3.45,4.13,8.89,6.46,16.18,6.92,7.32.46,15.44-1.09,23.09-4.19-.26-.63-.52-1.22-.77-1.78-6.34-14.25-16.94-25.8-27-29.44-3.1-1.12-6.63-1.68-9.65-1.68Z"/>
  </g>
  <g>
    <rect class="cls-1" x="38.93" y="58.8" width="346.25" height="346.25" rx="77.11" ry="77.11"/>
    <path class="cls-4" d="M214.28,329.35c-5.87,0-11.89-.7-18.01-2.19-20.72-5.06-38.94-18.64-51.3-38.23-12.04-19.09-17.45-42.38-15.24-65.6l39.76,3.78c-2.73,28.72,13.19,55.62,36.26,61.26,2.75.67,5.5.99,8.21.99,18.82,0,36-15.26,42.97-32.45.81-2,1.48-4,2.02-5.98-10.27,2.88-20.82,4.12-30.97,3.48-18.91-1.2-34.65-8.71-45.52-21.73-17.47-20.93-23.87-58.55-5.54-81.19,7.95-9.82,19.56-15.61,33.56-16.74,12.72-1.02,23.58,2.06,28.91,3.99,18.36,6.65,35.39,22.46,46.91,43.2,1.53-2.91,2.9-6.02,4.1-9.31l37.51,13.73c-6.01,16.42-14.95,30.22-26.58,41.02-.27.25-.54.5-.82.75,1.19,15.13-1,30.02-6.59,43.8-12.21,30.08-42.92,57.43-79.65,57.44ZM215.54,174.49c-3.52,0-6.43.71-7.57,2.12-4.12,5.09-2.15,21.7,5.16,30.46,4.64,5.55,12.01,7.13,17.38,7.47,7.92.5,16.73-1.23,24.98-4.65-.34-.84-.68-1.63-1.01-2.37-6.72-15.1-17.98-27.36-28.68-31.23-3.33-1.21-7.05-1.8-10.27-1.8Z"/>
  </g>
</svg>