<?xml version="1.0" encoding="UTF-8"?>
<svg id="Layer_1" data-name="Layer 1" xmlns="http://www.w3.org/2000/svg" viewBox="0 0 824.83 268.85">
  <defs>
    <style>
      .cls-1 {
        fill: #0e03a0;
      }
    </style>
  </defs>
  <g>
    <path class="cls-1" d="M166.06,46.38v38.91h-81.22v42.03h60.77v37.77h-60.77v80.65h-48.56V46.38h129.78Z"/>
    <path class="cls-1" d="M195.17,63.28c-5.4-5.01-8.09-11.22-8.09-18.6s2.7-13.87,8.09-18.88c5.4-5.01,12.35-7.53,20.87-7.53s15.19,2.51,20.59,7.53c5.4,5.02,8.09,11.31,8.09,18.88s-2.7,13.59-8.09,18.6c-5.4,5.02-12.26,7.53-20.59,7.53s-15.48-2.51-20.87-7.53ZM240.18,87.28v158.46h-48.56V87.28h48.56Z"/>
    <path class="cls-1" d="M363.71,204.56v41.18h-24.71c-17.61,0-31.34-4.3-41.18-12.92-9.85-8.61-14.77-22.67-14.77-42.17v-63.04h-19.31v-40.33h19.31v-38.62h48.56v38.62h31.81v40.33h-31.81v63.61c0,4.73,1.14,8.14,3.41,10.22,2.27,2.08,6.06,3.12,11.36,3.12h17.32Z"/>
    <path class="cls-1" d="M520.47,46.38v38.91h-81.22v42.03h60.77v37.77h-60.77v80.65h-48.56V46.38h129.78Z"/>
    <path class="cls-1" d="M594.58,35.59v210.15h-48.56V35.59h48.56Z"/>
  </g>
  <path class="cls-1" d="M697.57,252.18c-5.62,0-11.39-.67-17.26-2.1-19.84-4.85-37.28-17.84-49.11-36.6-11.51-18.25-16.69-40.53-14.58-62.73l38.82,3.69c-2.58,27.08,12.41,52.44,34.12,57.75,20.54,5.02,40.6-11.13,48.11-29.64.65-1.6,1.2-3.2,1.67-4.79-9.55,2.59-19.34,3.69-28.77,3.09-18.13-1.15-33.23-8.36-43.66-20.85-16.75-20.07-22.87-56.15-5.28-77.88,7.65-9.45,18.81-15.02,32.28-16.11,12.2-.98,22.6,1.98,27.72,3.83,17.34,6.28,33.43,21.08,44.44,40.52,1.27-2.51,2.42-5.17,3.45-7.98l36.62,13.4c-5.75,15.7-14.3,28.89-25.42,39.22-.2.18-.4.37-.6.55,1.09,14.39-1,28.55-6.32,41.65-11.68,28.79-41.08,54.96-76.25,54.96ZM698.71,104.84c-3.17,0-5.78.61-6.76,1.83-3.73,4.61-1.78,20.33,4.91,28.35,3.45,4.13,8.89,6.46,16.18,6.92,7.32.46,15.44-1.09,23.09-4.19-.26-.63-.52-1.22-.77-1.78-6.34-14.25-16.94-25.8-27-29.44-3.1-1.12-6.63-1.68-9.65-1.68Z"/>
</svg>