<?xml version="1.0" encoding="UTF-8"?>
<svg id="Layer_1" data-name="Layer 1" xmlns="http://www.w3.org/2000/svg" viewBox="0 0 824.83 268.85">
  <defs>
    <style>
      .cls-1 {
        font-family: Poppins-Bold, Poppins;
        font-size: 283.98px;
        font-weight: 700;
      }

      .cls-1, .cls-2 {
        fill: #0e03a0;
      }
    </style>
  </defs>
  <text class="cls-1" transform="translate(7.85 241.15)"><tspan x="0" y="0">FitFl</tspan></text>
  <path class="cls-2" d="M686.75,247.59c-5.62,0-11.39-.67-17.26-2.1-19.84-4.85-37.28-17.84-49.11-36.6-11.51-18.25-16.69-40.53-14.58-62.73l38.82,3.69c-2.58,27.08,12.41,52.44,34.12,57.75,20.54,5.02,40.6-11.13,48.11-29.64.65-1.6,1.2-3.2,1.67-4.79-9.55,2.59-19.34,3.69-28.77,3.09-18.13-1.15-33.23-8.36-43.66-20.85-16.75-20.07-22.87-56.15-5.28-77.88,7.65-9.45,18.81-15.02,32.28-16.11,12.2-.98,22.6,1.98,27.72,3.83,17.34,6.28,33.43,21.08,44.44,40.52,1.27-2.51,2.42-5.17,3.45-7.98l36.62,13.4c-5.75,15.7-14.3,28.89-25.42,39.22-.2.18-.4.37-.6.55,1.09,14.39-1,28.55-6.32,41.65-11.68,28.79-41.08,54.96-76.25,54.96ZM687.89,100.25c-3.17,0-5.78.61-6.76,1.83-3.73,4.61-1.78,20.33,4.91,28.35,3.45,4.13,8.89,6.46,16.18,6.92,7.32.46,15.44-1.09,23.09-4.19-.26-.63-.52-1.22-.77-1.78-6.34-14.25-16.94-25.8-27-29.44-3.1-1.12-6.63-1.68-9.65-1.68Z"/>
</svg>